<?xml version="1.0" encoding="utf-8"?>
<!-- Generator: Adobe Illustrator 28.3.0, SVG Export Plug-In . SVG Version: 6.00 Build 0)  -->
<svg version="1.1" xmlns="http://www.w3.org/2000/svg" xmlns:xlink="http://www.w3.org/1999/xlink" x="0px" y="0px"
	 viewBox="0 0 293 278" style="enable-background:new 0 0 293 278;" xml:space="preserve">
<style type="text/css">
	.st0{fill:#E2E1E0;}
	.st1{fill:#E1674F;}
	.st2{fill:#EE9867;}
	.st3{fill:#A44B45;}
	.st4{fill:#3C222B;}
	.st5{fill:#301D26;}
	.st6{fill:#423B31;}
	.st7{fill:#231F20;stroke:#FFFFFF;stroke-width:0.3921;stroke-miterlimit:10;}
	.st8{fill:none;stroke:#000000;stroke-width:2.6731;stroke-miterlimit:10;}
</style>
<g id="Background">
	<rect x="10" y="8" class="st0" width="275" height="263"/>
</g>
<g id="Layer_1">
</g>
<g id="Sun">
	<path class="st1" d="M112.23,71.01c0-11.81-9.57-21.37-21.37-21.37S69.48,59.2,69.48,71.01H112.23z"/>
</g>
<g id="Ocean">
	<path class="st2" d="M172.19,73.89l1.71,34.18c-66.45,8.6-145.56,16.98-145.56,16.98V73.89H172.19z"/>
	<path class="st2" d="M263.5,81.16v11.03c-0.22,2.85-30.08,7.84-68.46,13.08l1.57-31.38h21.11C235.8,74.89,256.97,76.95,263.5,81.16
		z"/>
</g>
<g id="Mountains">
	<path class="st3" d="M264.76,40.7v30.69h-68.02l0.37-7.46c4.77-3.17,11.69-6.28,20.98-6.96c7.22-0.53,14.39-2.15,21.08-4.93
		c4.94-2.06,8.92-4.08,12.31-8.26c1.4-1.72,3.33-3.25,5.42-4.02c1.21-0.44,2.5-0.63,3.79-0.5C261.24,39.31,264.76,40.02,264.76,40.7
		z"/>
</g>
<g id="column">
	<polygon points="261.3,158.14 261.3,159.48 198.44,159.48 197.74,158.14 176.53,129.03 200.88,129.03 	"/>
	<g>
		<g>
			<polygon class="st4" points="197.19,42.22 196.07,64.64 195.74,71.39 195.61,73.89 194.03,105.41 193.33,119.58 175.47,119.58 
				174.89,107.95 173.2,73.89 171.62,42.22 			"/>
			<line class="st4" x1="197.74" y1="41.2" x2="197.74" y2="41.22"/>
		</g>
	</g>
	<g>
		<rect x="166.33" y="39.11" class="st5" width="35.45" height="2.61"/>
		<path class="st5" d="M202.53,38.11h-36.51c0.02,0.01,0.03,0.01,0.03,0.01h36.45C202.5,38.12,202.51,38.12,202.53,38.11z
			 M170.17,41.72h-0.5"/>
	</g>
	<g>
		<path class="st6" d="M211.27,32.53c0.23,1.23-4.46,3.85-8.97,5.59h-36.27c-4.51-1.74-9.2-4.36-8.98-5.59
			c0.07-0.36,0.91-1.53,8.89-1.53h36.45C210.37,31,211.2,32.17,211.27,32.53z"/>
	</g>
	<g>
		<rect x="166.11" y="119.99" class="st5" width="34.91" height="2.61"/>
	</g>
	<rect x="155.23" y="123.67" width="56.67" height="5.76"/>
	<path class="st7" d="M241.24,167.63"/>
</g>
<g id="Crete">
	<line class="st8" x1="28.31" y1="159.48" x2="261.3" y2="159.48"/>
	<line class="st8" x1="28.31" y1="242.66" x2="261.3" y2="242.66"/>
</g>
<g id="Handles">
	<g>
		<path d="M67.44,221.23c-4.45,2.54-10.18,4.31-17.24,4.31c-12.79,0-23.96-8.34-23.96-24.45c0-15.55,11.87-25.86,25.16-25.86
			c6.93,0,11.38,1.63,15.34,4.03c0,1.91,0.28,5.23,0.57,7.07l-0.85,0.35c-4.31-5.65-8.76-8.27-15.55-8.27
			c-10.74,0-18.37,8.34-18.37,22.05c0,14.49,8.41,21.91,19.15,21.91c6.29,0,11.38-2.61,15.48-8.55l0.85,0.35
			C67.73,216,67.44,219.32,67.44,221.23z"/>
		<path d="M141.6,243.87c-11.17,0-39.38-25.75-48.85-43.7c-3.04,0-5.23,0-7.56,0v19.22c0,2.9,0.85,4.1,3.04,5.02l-0.35,0.78
			c-2.26-0.21-3.39-0.14-5.37-0.14s-3.18,0-5.23,0.14l-0.28-0.64c1.7-0.78,2.4-2.26,2.4-4.59v-39.29c0-1.55-0.57-3.39-2.54-4.45
			l0.21-0.64c3.53,0.14,6.22,0.14,9.75,0.14c3.75,0,7.99-0.07,11.66-0.07c8.62,0,15.76,3.6,15.76,11.38
			c0,7.49-6.22,11.52-14.28,12.72c6.85,15.48,34.65,42.71,43.62,42.71c1.55,0,2.54-0.14,3.67-0.64l0.42,0.78
			C145.98,243.45,144.5,243.87,141.6,243.87z M97.05,178.83c-4.52,0-7.77,0.07-11.87,0.14v17.95c3.39,0,6.57,0.07,10.11,0.07
			c6.93,0,12.72-2.97,12.72-9.47C108.01,181.51,104.47,178.83,97.05,178.83z"/>
		<path d="M165.96,225.18c-5.87-0.14-9.26-0.14-15.12-0.14c-7.14,0-11.94,0-19.01,0.21l-0.28-0.57c1.63-0.99,2.26-2.47,2.26-5.09
			v-38.87c0-2.4-0.42-3.75-2.33-4.59l0.21-0.71c6.93,0.35,9.47,0.28,16.4,0.28c6.36,0,12.37,0,18.73-0.35
			c-0.71,1.2-1.7,3.32-2.19,4.81c-0.78-0.85-2.33-1.2-6.93-1.2H139.6v16.39h7.7c5.16,0,8.06-0.14,9.68-1.06l0.42,0.35
			c-0.78,0.92-1.84,3.32-2.33,4.81c-1.27-0.71-3.96-0.85-7.77-0.85h-7.7v23.18H155c9.19,0,11.94-1.55,14.7-4.31l0.64,0.49
			C168.57,220.17,166.8,223.21,165.96,225.18z"/>
		<path d="M211.96,181.02h-0.71c-0.42-1.06-1.27-2.05-5.58-2.05h-10.11v58.97c0,2.83,0.71,4.17,3.25,5.16l-0.14,0.78
			c-1.7-0.14-3.89-0.14-5.65-0.14c-1.7,0-4.1,0.07-5.72,0.14l-0.14-0.78c1.84-0.85,2.61-2.12,2.61-4.73v-59.39h-8.13
			c-5.8,0-7.7,0.85-9.61,2.19l-0.57-0.42l2.26-5.16c7.42,0.07,11.66,0.14,19.08,0.14c8.34,0,13.14-0.07,21.41-0.14L211.96,181.02z"
			/>
		<path d="M254.29,225.18c-5.87-0.14-9.26-0.14-15.12-0.14c-7.14,0-11.94,0-19.01,0.21l-0.28-0.57c1.63-0.99,2.26-2.47,2.26-5.09
			v-38.87c0-2.4-0.42-3.75-2.33-4.59l0.21-0.71c6.93,0.35,9.47,0.28,16.4,0.28c6.36,0,12.37,0,18.73-0.35
			c-0.71,1.2-1.7,3.32-2.19,4.81c-0.78-0.85-2.33-1.2-6.93-1.2h-18.09v16.39h7.7c5.16,0,8.06-0.14,9.68-1.06l0.42,0.35
			c-0.78,0.92-1.84,3.32-2.33,4.81c-1.27-0.71-3.96-0.85-7.77-0.85h-7.7v23.18h15.41c9.19,0,11.94-1.55,14.7-4.31l0.64,0.49
			C256.91,220.17,255.14,223.21,254.29,225.18z"/>
	</g>
</g>
</svg>
