<?xml version="1.0" encoding="utf-8"?>
<!-- Generator: Adobe Illustrator 28.3.0, SVG Export Plug-In . SVG Version: 6.00 Build 0)  -->
<svg version="1.1" xmlns="http://www.w3.org/2000/svg" xmlns:xlink="http://www.w3.org/1999/xlink" x="0px" y="0px"
	 viewBox="0 0 500 500" style="enable-background:new 0 0 500 500;" xml:space="preserve">
<style type="text/css">
	.st0{fill:#FFFFFF;stroke:#000000;stroke-width:0.4801;stroke-miterlimit:10;}
	.st1{clip-path:url(#SVGID_00000172438929041685559520000007364808341482325663_);}
	.st2{fill:#FFFFFF;stroke:#000000;stroke-width:0.4801;stroke-linejoin:round;stroke-miterlimit:10;}
	.st3{fill:none;stroke:#000000;stroke-width:0.4801;stroke-linecap:round;stroke-linejoin:round;stroke-miterlimit:10;}
</style>
<g id="Layer_1">
</g>
<g id="Axe">
	<g>
		<g>
			<g>
				<path d="M261.93,206.93l-1.69,165.66c-0.06,2.25-3.49,2.45-3.6,0c0,0-1.69-165.66-1.69-165.66
					C255.02,202.32,261.81,202.23,261.93,206.93L261.93,206.93z"/>
			</g>
		</g>
		<polygon class="st0" points="279.58,253.85 234.05,297.16 267.9,297.16 232.37,332.68 267.9,332.68 225.63,374.95 279.9,328.6 
			244.37,328.6 280.86,292.12 247.73,292.12 		"/>
		<g>
			<defs>
				<path id="SVGID_1_" d="M252.94,201.44v174.92h10.99V201.44H252.94z M261.52,344.61l-6.12,5.23l-0.05-4.95l6.23-6.23
					L261.52,344.61z M261.86,311.46l-6.01,6.01c0,0,0,0,0,0l-0.79-0.97l-0.07-6.77l6.89-6.89l0.07,0.11L261.86,311.46z
					 M262.23,275.08l-7.5,9.02l-0.07-6.86l7.63-7.25L262.23,275.08z"/>
			</defs>
			<clipPath id="SVGID_00000183935688898107653030000004945416574269977234_">
				<use xlink:href="#SVGID_1_"  style="overflow:visible;"/>
			</clipPath>
			<g style="clip-path:url(#SVGID_00000183935688898107653030000004945416574269977234_);">
				<path d="M261.93,206.93l-1.69,165.66c-0.06,2.25-3.49,2.45-3.6,0c0,0-1.69-165.66-1.69-165.66
					C255.02,202.32,261.81,202.23,261.93,206.93L261.93,206.93z"/>
			</g>
		</g>
		<path class="st2" d="M297.86,233.43c0.13,12.97-8.32,23.65-12.64,25.87c-4.32,2.23-3.21-2.29-3.21-2.29
			c6.1-11.53-19.11-12.22-23.57-12.25c-4.47,0.03-29.66,0.72-23.57,12.25c0,0,1.11,4.52-3.21,2.29
			c-4.32-2.22-12.78-12.9-12.64-25.87c-0.14-12.97,8.32-23.65,12.64-25.88c4.32-2.22,3.21,2.3,3.21,2.3
			c-6.12,11.59,19.34,12.22,23.63,12.25c4.64-0.03,29.58-0.77,23.51-12.25c0,0-1.11-4.52,3.21-2.3
			C289.54,209.78,297.99,220.46,297.86,233.43z"/>
	</g>
	<g>
		<g>
			<path d="M137.37,193.85c-0.65,1.92-1.3,3.85-1.95,5.77c-7.6,6.37-15.68,10.98-24.18,13.94c-12.19,4.24-21.93,4.4-29.38-0.05
				c-7.44-4.43-11.11-12.69-11.11-25.11c0-8.54,1.83-16.89,5.53-24.96c3.7-8.06,8.59-15,14.73-20.67
				c6.14-5.67,13.07-9.9,20.84-12.59c4.49-1.55,8.95-2.48,13.38-2.8c4.43-0.31,8.14-0.12,11.12,0.51c0.12,0.15,0.24,0.31,0.36,0.46
				c-0.79,2.32-1.52,7.72-2.21,16.2c-0.12,0.18-0.24,0.37-0.36,0.55c-0.8,0.23-1.61,0.46-2.41,0.69c-0.14-0.11-0.27-0.22-0.41-0.33
				c-0.17-3.14-0.34-6.27-0.51-9.41c-2.49-1.44-5.5-2.23-9.02-2.34c-3.52-0.1-7.17,0.5-10.95,1.82c-5.7,1.99-10.78,5.26-15.26,9.73
				c-4.47,4.48-7.92,9.86-10.37,16.05c-2.45,6.2-3.67,13.04-3.67,20.5c0,7.5,1.43,13.45,4.31,17.89c2.88,4.44,6.82,7.16,11.85,8.25
				c5.03,1.09,10.94,0.43,17.74-1.85c3.01-1.01,5.91-2.26,8.71-3.77c2.79-1.51,5.12-2.99,6.98-4.47c1.86-1.48,3.65-3.13,5.36-4.96
				C136.79,193.22,137.08,193.54,137.37,193.85z"/>
			<path d="M147.96,121.52c0.14-0.17,0.28-0.33,0.41-0.5c6.31-1.25,11.25-2.16,14.79-2.9c3.92-0.81,9.22-1.99,15.92-3.37
				c2.48-0.49,4.28-0.8,5.39-0.98c8.84-1.35,14.86-0.28,18.02,2.81c3.16,3.11,4.74,7.05,4.74,11.77c0,3.15-0.77,6.32-2.32,9.51
				c-1.55,3.2-3.83,6.03-6.84,8.55c-3.02,2.52-7.17,4.67-12.45,6.54c0.98,1.32,2.74,3.58,5.3,6.83c2.49,3.18,4.97,6.39,7.46,9.62
				c2.42,3.2,5.02,6.6,7.79,10.2c2.77,3.6,4.57,5.64,5.38,6.08c0.81,0.44,1.5,0.69,2.08,0.75c0.58,0.07,1.5,0.05,2.77-0.05
				c0.14,0.14,0.28,0.28,0.42,0.42c0,0.88,0,1.76,0,2.64c-0.16,0.18-0.32,0.36-0.47,0.54c-1.69-0.1-3.69-0.05-6.01,0.16
				c-2.5,0.22-5.22,0.6-8.17,1.15c-2.42-2.88-6.23-7.91-11.41-14.96c-6.02-8.17-12.17-15.53-18.43-22.06
				c0.17-0.61,0.35-1.23,0.52-1.84c1.81-0.22,3.22-0.41,4.23-0.58c6.03-1.03,10.77-3.27,14.2-6.86c3.43-3.58,5.15-8.09,5.15-13.6
				c0-4.95-1.54-8.5-4.62-10.62c-3.08-2.11-7.24-2.79-12.48-1.92c-3.66,0.61-7.11,1.78-10.34,3.48c-0.52,0.93-0.78,8.01-0.78,21.24
				c0,8.68,0,17.36,0,26.04c0.02,3.65,0.03,7.3,0.05,10.96c0.03,4.23,0.14,6.95,0.31,8.15c0.17,1.2,0.43,1.98,0.76,2.33
				c0.33,0.35,0.97,0.57,1.9,0.68c0.94,0.11,3.25-0.11,6.95-0.59c0.14,0.09,0.28,0.18,0.42,0.27c0,0.94,0,1.87,0,2.81
				c-0.14,0.17-0.28,0.35-0.42,0.52c-0.17,0.04-3.25,0.41-9.19,1.32c-2.47,0.4-4.4,0.76-5.78,1.04c-1.07,0.24-6.04,1.36-14.84,3.81
				c-0.14-0.12-0.28-0.23-0.41-0.35c0-0.94,0-1.87,0-2.81c0.14-0.15,0.28-0.29,0.41-0.44c3.21-0.94,5.35-1.61,6.42-2.09
				c1.07-0.47,1.79-0.92,2.15-1.36c0.36-0.44,0.66-1.26,0.88-2.47c0.22-1.21,0.35-3.83,0.39-7.85c0.02-3.96,0.03-7.92,0.05-11.88
				c0-8.68,0-17.36,0-26.04c-0.03-3.65-0.07-7.3-0.1-10.94c-0.03-4.27-0.13-7-0.29-8.2c-0.16-1.2-0.4-1.97-0.73-2.31
				c-0.33-0.34-0.96-0.54-1.89-0.59c-0.93-0.05-3.23,0.27-6.89,1.01c-0.14-0.1-0.28-0.19-0.41-0.29
				C147.96,123.4,147.96,122.46,147.96,121.52z"/>
			<path d="M226.84,109.95c0.14-0.14,0.28-0.28,0.42-0.41c12.08-0.34,19.83-0.15,23.21-0.14c11.56,0.09,21.85,0.53,30.85,1.04
				c0.09,0.14,0.18,0.28,0.26,0.42c-0.88,3.53-1.53,9.12-1.95,16.77c-0.11,0.14-0.21,0.28-0.32,0.43c-0.86-0.07-1.72-0.13-2.59-0.19
				c-0.16-0.16-0.32-0.32-0.48-0.48c0.04-0.34,0.05-0.63,0.05-0.9c0-3.19-0.23-6.24-0.69-9.16c-2.22-1.2-5.29-2.08-9.22-2.58
				c-3.93-0.5-6.88-0.74-8.85-0.79c-2.78-0.07-6.35,0.08-10.68,0.49c-0.07,3-0.14,6-0.21,9c-0.05,3.43-0.11,6.86-0.16,10.29
				c-0.05,3.81-0.11,7.61-0.16,11.42c3.81,0.22,7.32,0.37,10.52,0.45c3.24,0.07,5.96,0.06,8.14-0.07c2.18-0.13,3.46-0.3,3.83-0.52
				c0.37-0.22,0.65-0.68,0.85-1.36c0.19-0.68,0.36-1.9,0.5-3.66c0.07-1.16,0.14-2.32,0.21-3.48c0.14-0.14,0.28-0.28,0.42-0.43
				c0.81,0.05,1.62,0.09,2.43,0.14c0.14,0.16,0.28,0.32,0.42,0.48c-0.07,4.08-0.16,8.18-0.26,12.3c0.09,4.22,0.18,8.45,0.26,12.67
				c-0.14,0.14-0.28,0.28-0.42,0.42c-0.81-0.05-1.62-0.1-2.43-0.14c-0.14-0.16-0.28-0.32-0.42-0.47c-0.12-1.13-0.25-2.26-0.37-3.39
				c-0.32-2.64-0.55-4.22-0.69-4.73c-0.14-0.51-0.47-0.97-0.98-1.37c-0.51-0.4-1.82-0.77-3.94-1.08c-2.11-0.31-5.02-0.53-8.72-0.6
				c-2.04-0.04-5.16,0-9.36,0.2c-0.18,3.15-0.27,8.4-0.27,15.75c0,7.87,0.09,13.67,0.27,17.38c3.24-0.01,6.49,0.02,9.73,0.09
				c8.56,0.19,13.92,0.42,16.06,0.31c2.15-0.1,4.19-0.5,6.12-1.22c0.32-0.84,0.83-2.8,1.56-5.87c0.72-3.07,1.13-5,1.24-5.78
				c0.18-0.12,0.35-0.23,0.53-0.35c0.84,0.07,1.69,0.14,2.53,0.22c0.14,0.14,0.28,0.29,0.42,0.43c-0.32,1.58-0.62,4.37-0.92,8.35
				c-0.3,3.99-0.45,7.4-0.45,10.25c-0.12,0.14-0.25,0.28-0.37,0.42c-6.71-0.8-15.52-1.51-26.41-1.76c-4.79-0.14-9.59-0.2-14.38-0.18
				c-3.35,0.04-6.84,0.28-10.47,0.72c-0.14-0.14-0.28-0.29-0.42-0.43c0-0.62,0-1.24,0-1.86c0.14-0.19,0.28-0.39,0.42-0.58
				c2.08-1.2,3.27-1.94,3.57-2.23c0.3-0.29,0.55-3.58,0.74-9.86c0.19-6.28,0.29-11.08,0.29-14.38c0-6.88,0-13.76,0-20.64
				c-0.02-4.25-0.04-8.51-0.05-12.76c0-2.77-0.04-5.03-0.11-6.77c-0.07-1.74-0.19-2.98-0.37-3.73c-0.18-0.74-0.38-1.26-0.61-1.56
				c-0.23-0.29-0.6-0.53-1.11-0.72c-0.51-0.19-1.38-0.34-2.62-0.44c-1.34-0.06-2.68-0.11-4.02-0.16c-0.14-0.12-0.28-0.25-0.42-0.37
				C226.84,111.82,226.84,110.89,226.84,109.95z"/>
			<path d="M357.56,123.96c0.15,0.21,0.31,0.42,0.46,0.63c-0.31,3.29-0.46,9.13-0.46,17.53c-0.14,0.11-0.27,0.22-0.41,0.34
				c-0.81-0.22-1.61-0.44-2.42-0.66c-0.14-0.21-0.27-0.41-0.41-0.62c-0.19-1.77-0.38-3.55-0.57-5.32c-0.27-2.85-0.49-4.6-0.64-5.26
				c-0.16-0.66-0.4-1.18-0.75-1.55c-0.34-0.37-1.46-0.9-3.35-1.57c-1.89-0.67-4.01-1.28-6.36-1.84c-3.26-0.77-6.53-1.5-9.81-2.19
				c-0.28,8.41-0.42,13.28-0.42,14.59c0,10.93,0,21.86,0,32.79c0.03,3.66,0.07,7.32,0.1,10.99c0.03,4.24,0.13,7.01,0.29,8.3
				c0.16,1.29,0.4,2.16,0.73,2.63c0.33,0.46,0.96,0.94,1.9,1.42c0.93,0.49,3.26,1.2,6.95,2.22c0.12,0.14,0.24,0.28,0.36,0.42
				c0,0.94,0,1.87,0,2.81c-0.12,0.12-0.24,0.24-0.36,0.36c-8.84-2.37-13.82-3.44-14.86-3.66c-1.11-0.21-6.06-1.08-14.89-2.2
				c-0.14-0.17-0.28-0.34-0.42-0.52c0-0.94,0-1.87,0-2.81c0.14-0.09,0.28-0.18,0.42-0.27c3.28,0.37,5.45,0.57,6.51,0.53
				c1.06-0.04,1.78-0.2,2.14-0.49c0.37-0.29,0.67-0.99,0.91-2.11c0.24-1.12,0.36-3.68,0.36-7.69c0.03-3.95,0.07-7.9,0.1-11.85
				c0-10.93,0-21.86,0-32.79c0-0.6-0.14-5.52-0.42-14.75c-2.59-0.48-5.19-0.93-7.79-1.35c-3.21-0.53-5.99-0.87-8.33-1.05
				c-2.34-0.18-3.7,0.02-4.07,0.59c-0.37,0.57-0.71,2.54-1.02,5.91c-0.18,1.7-0.35,3.4-0.53,5.11c-0.16,0.15-0.31,0.3-0.47,0.45
				c-0.81-0.1-1.61-0.2-2.42-0.3c-0.14-0.17-0.28-0.33-0.42-0.5c-0.07-9.04-0.23-14.95-0.47-17.72c0.16-0.15,0.32-0.3,0.47-0.45
				c6.1,1.05,16.25,2.51,30.32,5.26C341.88,120.16,351.84,122.69,357.56,123.96z"/>
			<path d="M369.23,127.75c0.14-0.09,0.27-0.18,0.41-0.27c11.68,3.84,19.04,6.72,22.26,7.91c11.01,4.09,20.67,8.1,29.06,11.74
				c0.08,0.17,0.16,0.34,0.25,0.51c-0.82,3.22-1.43,8.59-1.82,16.09c-0.1,0.1-0.2,0.21-0.3,0.32c-0.8-0.37-1.61-0.73-2.41-1.09
				c-0.15-0.22-0.3-0.43-0.44-0.65c0.03-0.32,0.05-0.62,0.05-0.88c0-3.19-0.21-6.32-0.64-9.4c-2.07-1.97-4.95-3.91-8.65-5.78
				c-3.7-1.86-6.49-3.13-8.36-3.86c-2.64-1.03-6.02-2.12-10.16-3.21c-0.07,2.98-0.13,5.95-0.2,8.93c-0.05,3.41-0.1,6.82-0.15,10.24
				c-0.05,3.79-0.1,7.57-0.15,11.36c3.63,1.53,6.97,2.91,10.01,4.09c3.07,1.2,5.63,2.13,7.69,2.75c2.06,0.63,3.26,0.9,3.61,0.81
				c0.35-0.1,0.61-0.45,0.79-1.07c0.18-0.62,0.34-1.78,0.47-3.48c0.07-1.13,0.13-2.27,0.2-3.4c0.13-0.09,0.26-0.19,0.4-0.28
				c0.76,0.33,1.52,0.66,2.28,0.99c0.13,0.21,0.26,0.42,0.4,0.62c-0.07,4.06-0.15,8.13-0.25,12.21c0.08,4.25,0.16,8.51,0.25,12.76
				c-0.13,0.09-0.26,0.18-0.4,0.28c-0.76-0.33-1.52-0.66-2.28-0.99c-0.13-0.21-0.26-0.41-0.4-0.62c-0.12-1.17-0.23-2.35-0.35-3.52
				c-0.3-2.75-0.51-4.41-0.65-4.97c-0.13-0.56-0.44-1.13-0.92-1.71c-0.48-0.58-1.71-1.4-3.71-2.45c-1.99-1.04-4.74-2.27-8.25-3.63
				c-1.94-0.75-4.9-1.79-8.91-3.04c-0.17,3.09-0.25,8.31-0.25,15.66c0,7.87,0.08,13.7,0.25,17.47c3.1,1.12,6.18,2.27,9.26,3.46
				c8.12,3.16,13.13,5.24,15.15,5.88c2.01,0.65,3.92,0.95,5.73,0.91c0.3-0.73,0.78-2.51,1.45-5.33c0.67-2.82,1.06-4.6,1.16-5.35
				c0.16-0.06,0.33-0.11,0.49-0.17c0.79,0.36,1.57,0.73,2.36,1.1c0.13,0.19,0.26,0.39,0.39,0.58c-0.29,1.47-0.58,4.15-0.86,8.03
				c-0.28,3.88-0.42,7.25-0.42,10.1c-0.11,0.1-0.23,0.19-0.34,0.29c-6.25-3.13-14.48-6.9-24.81-10.92c-4.55-1.8-9.11-3.52-13.7-5.16
				c-3.21-1.12-6.56-2.09-10.06-2.91c-0.14-0.19-0.27-0.39-0.41-0.58c0-0.62,0-1.24,0-1.86c0.14-0.14,0.27-0.29,0.41-0.43
				c2-0.48,3.15-0.81,3.44-0.99c0.29-0.19,0.52-3.39,0.71-9.61c0.19-6.22,0.28-10.98,0.28-14.28c0-6.88,0-13.76,0-20.64
				c-0.02-4.26-0.03-8.52-0.05-12.78c0-2.77-0.03-5.04-0.1-6.81c-0.07-1.77-0.19-3.05-0.36-3.86c-0.17-0.81-0.36-1.39-0.58-1.77
				c-0.22-0.37-0.58-0.74-1.07-1.11c-0.49-0.37-1.33-0.82-2.52-1.35c-1.29-0.52-2.58-1.04-3.88-1.55c-0.14-0.17-0.27-0.35-0.41-0.52
				C369.23,129.62,369.23,128.69,369.23,127.75z"/>
		</g>
	</g>
	<path class="st3" d="M230.03,212.63c0,0-16.81,18.45,0,40.38"/>
	<path class="st3" d="M286.44,212.63c0,0,16.81,18.45,0,40.38"/>
</g>
</svg>
